<svg width="345" height="345" viewBox="0 0 345 345" fill="none" xmlns="http://www.w3.org/2000/svg">
<rect width="345" height="340" rx="170" fill="#969696"/>
<g clip-path="url(#clip0_4_184)">
<path d="M284.491 176.799C284.491 191.189 281.773 205.162 276.755 217.675C274.245 224.14 271.109 230.397 267.345 236.236V236.445C261.073 246.455 253.127 255.423 244.136 262.931C239.745 266.476 235.145 269.813 230.336 272.942C230.127 273.15 229.918 273.15 229.5 273.359C229.291 273.567 229.082 273.567 228.664 273.776C225.736 275.444 222.6 277.113 219.464 278.572C218.209 279.198 216.955 279.615 215.7 280.241C211.936 281.909 207.964 283.161 203.991 284.412C203.782 284.412 203.782 284.412 203.573 284.62C202.527 284.829 201.691 285.246 200.645 285.455C199.6 285.663 198.555 286.08 197.509 286.289C193.327 287.332 189.145 287.957 184.755 288.374C182.455 288.583 180.364 288.791 178.064 289C175.973 289.209 174.091 289.209 172 289.209C169.909 289.209 167.818 289.209 165.936 289C163.636 288.791 161.127 288.583 158.827 288.374C154.855 287.957 151.091 287.332 147.327 286.497C147.118 286.497 146.7 286.289 146.491 286.289C145.655 286.08 144.818 285.872 143.982 285.663C142.936 285.455 141.891 285.246 141.055 284.829C138.964 284.203 136.873 283.578 134.782 282.743C130.6 281.284 126.627 279.615 122.864 277.738C122.655 277.738 122.445 277.53 122.236 277.53C122.027 277.53 122.027 277.321 121.818 277.321C121.609 277.113 121.191 277.113 120.982 276.904C120.773 276.695 120.355 276.695 120.145 276.487C112.827 272.733 106.136 268.145 99.8636 263.14C96.9364 260.846 94.2182 258.343 91.7091 255.632C86.0636 249.792 80.8364 243.536 76.6545 236.654C76.6545 236.654 76.6545 236.654 76.6545 236.445C72.8909 230.606 69.7545 224.349 67.2455 217.884C62.2273 205.162 59.5091 191.398 59.5091 176.799C59.5091 140.094 77.0727 107.56 104.464 87.1222L104.673 86.9136C105.927 86.0794 107.182 85.0366 108.436 84.2024C126.418 71.8979 148.373 64.5986 172 64.5986C189.982 64.5986 207.127 68.7696 222.182 76.2775C223.436 76.9031 224.9 77.7373 226.155 78.363C227.409 79.1972 228.873 79.8229 230.127 80.6571C262.745 100.469 284.491 136.132 284.491 176.799Z" fill="#131313"/>
<path d="M92.9636 169.291C92.9636 169.291 81.4636 199.531 67.6636 217.467C53.8636 235.402 55.3273 238.739 62.4364 243.119C69.3364 247.498 69.3364 247.29 75.1909 238.739C80.8364 230.188 70.8 249.792 72.2636 250.209C73.9364 250.627 99.2364 269.396 128.718 266.476C158.2 263.557 159.036 221.638 159.036 221.638C159.036 221.638 132.482 219.552 126.836 200.783C120.564 181.805 106.764 168.457 92.9636 169.291Z" fill="#FF4D00"/>
<path d="M251.036 169.291C251.036 169.291 262.536 199.531 276.336 217.467C290.136 235.402 288.673 238.739 281.564 243.119C274.664 247.498 274.664 247.29 268.809 238.739C263.164 230.188 273.2 249.792 271.736 250.209C270.064 250.627 244.764 269.396 215.282 266.476C185.8 263.557 184.964 221.638 184.964 221.638C184.964 221.638 211.518 219.552 217.164 200.783C223.227 181.805 237.236 168.457 251.036 169.291Z" fill="#FF4D00"/>
<path d="M190.191 259.803L170.118 276.487L150.882 259.803V225.392H190.191V259.803Z" fill="white"/>
<path d="M170.118 277.738L150.045 260.22V224.558H191.236V260.22L170.118 277.738ZM151.927 259.177L170.118 275.027L189.145 259.177V226.435H151.927V259.177Z" fill="black"/>
<path d="M219.464 278.572C218.209 279.198 216.955 279.615 215.7 280.241C211.936 281.909 207.964 283.161 203.991 284.412C203.782 284.412 203.782 284.412 203.573 284.62C202.527 284.829 201.691 285.246 200.645 285.455C199.6 285.663 198.555 286.08 197.509 286.289C193.327 287.332 190.391 293.583 186 294L171.164 297L159 304C155.027 303.583 151.091 287.332 147.327 286.497C147.118 286.497 146.7 286.289 146.491 286.289C145.655 286.08 144.818 285.872 143.982 285.663C142.936 285.455 141.891 285.246 141.055 284.829C138.964 284.203 136.873 283.578 134.782 282.743C130.6 281.284 126.627 279.615 122.864 277.738C123.909 273.359 125.164 269.605 126.836 266.268C133.736 252.295 145.655 248.332 150.882 247.081C151.091 247.081 151.3 247.081 151.509 246.873C151.718 247.498 151.718 248.124 151.927 248.75C153.6 254.798 158.2 262.931 171.164 262.931C184.964 262.931 188.518 253.338 189.145 246.664C189.355 246.664 189.773 246.664 189.982 246.873C190.191 246.873 190.609 247.081 191.027 247.081C196.255 248.332 207.964 252.295 215.073 266.059C216.955 269.605 218.418 273.776 219.464 278.572Z" fill="#969696"/>
<path d="M108.855 154.276C108.855 154.276 97.7727 135.089 85.2273 144.891C72.4727 154.693 82.7182 184.724 109.273 175.339L108.855 154.276Z" fill="white"/>
<path d="M110.109 153.859L109.9 153.65C109.9 153.441 108.645 151.564 106.764 149.27C105.509 147.602 103.627 145.934 101.745 144.265C101.327 144.057 100.909 143.639 100.491 143.431C100.073 143.222 99.6545 143.014 99.2364 142.805C97.7727 141.971 96.3091 141.345 94.8455 141.137C93.5909 140.928 92.3364 140.928 91.2909 140.928C88.9909 141.137 86.6909 142.18 84.3909 143.848C77.9091 148.853 76.6545 159.072 81.2545 167.623C83.1364 170.96 86.0636 174.297 90.0364 176.174C92.7545 177.633 95.8909 178.468 99.6545 178.468C100.7 178.468 101.955 178.468 103 178.259C103.418 178.259 103.836 178.05 104.255 178.05C104.673 178.05 105.091 177.842 105.509 177.842C106.764 177.633 108.227 177.216 109.691 176.591L110.527 176.382V175.756L110.109 153.859ZM90.8727 174.088C87.7364 172.42 85.2273 169.917 83.3455 166.58C79.3727 159.281 80.4182 150.105 85.8545 145.934C87.7364 144.474 89.6182 143.639 91.5 143.431C91.9182 143.431 92.1273 143.431 92.5455 143.431C93.1727 143.431 93.8 143.431 94.4273 143.639C96.1 144.057 97.7727 144.682 99.2364 145.725C99.6545 145.934 100.073 146.351 100.491 146.559C100.909 146.976 101.327 147.185 101.745 147.602C102.373 148.228 103 148.853 103.627 149.479C105.718 151.773 107.391 154.067 107.809 154.901L108.227 174.088V174.714C107.182 175.131 106.136 175.339 105.091 175.548C104.673 175.548 104.255 175.756 103.836 175.756C103.418 175.756 103 175.965 102.582 175.965C98.1909 176.174 94.2182 175.548 90.8727 174.088Z" fill="black"/>
<path d="M105.927 156.987C105.927 156.987 93.1727 145.099 89.2 153.233C85.0182 161.366 91.2909 172.837 107.182 171.586L105.927 156.987Z" fill="#131313"/>
<path d="M228.455 154.276C228.455 154.276 239.536 135.089 252.082 144.891C264.836 154.693 254.591 184.724 228.036 175.548L228.455 154.276Z" fill="white"/>
<path d="M252.918 143.848C251.455 142.805 249.991 141.971 248.527 141.554C246.436 140.928 244.555 140.72 242.255 141.137C239.745 141.554 237.445 142.805 235.564 144.265C235.145 144.474 234.727 144.891 234.309 145.099C233.891 145.517 233.473 145.725 233.055 146.142C232.009 147.185 230.964 148.228 230.127 149.271C228.245 151.565 227.2 153.442 226.991 153.65L226.782 153.859L226.364 176.174L227.2 176.382C227.827 176.591 228.455 176.799 229.291 177.008C229.709 177.216 230.127 177.216 230.545 177.216C230.755 177.216 230.964 177.216 230.964 177.425C231.173 177.425 231.382 177.425 231.591 177.634C233.682 178.051 235.564 178.259 237.236 178.259C243.509 178.259 248.527 175.757 251.873 172.42C253.336 170.96 254.591 169.291 255.427 167.623C260.655 159.072 259.4 148.853 252.918 143.848ZM233.473 175.548C233.055 175.548 232.845 175.339 232.427 175.339C232.009 175.339 231.591 175.131 231.173 175.131C230.755 175.131 230.336 174.922 229.918 174.714C229.5 174.714 229.291 174.505 228.873 174.505L229.291 154.484C229.709 153.859 230.964 151.773 232.845 149.688L233.055 149.479C233.473 149.062 233.891 148.645 234.309 148.228C234.727 147.811 235.145 147.394 235.564 147.185C237.655 145.517 239.955 143.848 242.673 143.431C244.764 143.014 246.645 143.223 248.527 144.057C249.364 144.474 250.2 144.891 251.245 145.725C256.682 149.896 257.727 159.072 253.755 166.372C253.127 167.623 252.291 168.874 251.245 169.917C247.064 174.922 240.791 176.799 233.473 175.548Z" fill="black"/>
<path d="M231.173 156.987C231.173 156.987 243.927 145.099 247.9 153.233C252.082 161.366 245.809 172.837 229.918 171.586L231.173 156.987Z" fill="#131313"/>
<path d="M167.4 230.397C204.468 230.397 234.518 194.822 234.518 150.939C234.518 107.055 204.468 71.4808 167.4 71.4808C130.332 71.4808 100.282 107.055 100.282 150.939C100.282 194.822 130.332 230.397 167.4 230.397Z" fill="white"/>
<path d="M235.773 148.853C235.773 148.436 235.773 147.811 235.773 147.394C235.773 146.976 235.773 146.351 235.773 145.934C235.773 145.517 235.773 144.891 235.773 144.474C232.636 102.764 203.155 70.2295 167.4 70.2295C132.064 70.2295 102.791 102.138 99.4455 142.805C99.4455 143.223 99.4455 143.64 99.4455 144.265C99.4455 144.682 99.4455 145.099 99.4455 145.725C99.4455 146.768 99.2364 147.811 99.2364 148.645C99.2364 149.479 99.2364 150.313 99.2364 151.147C99.2364 151.565 99.2364 151.982 99.2364 152.399C99.2364 158.655 100.073 164.703 101.327 170.543C101.327 170.96 101.536 171.377 101.536 171.794C101.955 173.254 102.164 174.714 102.582 175.965C102.582 176.382 102.791 176.799 103 177.216C103 177.633 103.209 178.051 103.418 178.468C111.155 203.702 128.927 223.098 151.3 229.563C153.6 230.188 155.691 230.814 157.991 231.023C161.127 231.648 164.473 231.857 167.818 231.857C174.3 231.857 180.573 230.814 186.427 228.937C187.891 228.52 189.145 227.894 190.609 227.477C210.055 219.344 225.527 201.2 232.427 178.259C232.636 177.842 232.636 177.633 232.636 177.216C232.636 177.216 232.636 177.216 232.636 177.008C232.845 176.591 232.845 176.174 233.055 175.757C233.473 174.505 233.682 173.254 233.891 172.211C235.145 166.372 235.982 160.324 236.191 154.067C236.191 153.233 236.191 152.399 236.191 151.356C235.773 150.105 235.773 149.479 235.773 148.853ZM233.473 150.939C233.473 152.399 233.473 153.859 233.264 155.318C233.055 160.949 232.218 166.372 230.964 171.794C230.755 172.837 230.545 173.88 230.127 174.922C229.918 175.339 229.918 175.757 229.709 176.174C229.709 176.591 229.5 177.008 229.291 177.425C228.873 178.468 228.664 179.719 228.245 180.762C225.527 188.895 221.555 196.403 216.536 203.077C212.982 207.873 208.8 212.253 204.409 215.798C199.182 219.969 193.536 223.306 187.264 225.6C186.636 225.809 186.009 226.017 185.382 226.226C179.527 228.312 173.464 229.354 167.191 229.354C164.055 229.354 160.918 229.146 157.782 228.52C155.273 228.103 152.973 227.477 150.673 226.852C129.555 220.387 112.618 201.825 105.3 177.842C105.091 177.425 105.091 177.008 104.882 176.591C104.673 176.174 104.673 175.757 104.464 175.339C104.045 174.088 103.836 173.045 103.627 171.794V171.586C102.373 165.955 101.536 159.907 101.327 153.65C101.327 152.816 101.327 151.773 101.327 150.939C101.327 150.313 101.327 149.688 101.327 148.853C101.327 148.228 101.327 147.811 101.327 147.185C101.327 146.768 101.327 146.142 101.327 145.725C101.327 145.308 101.327 144.682 101.327 144.265C104.464 104.223 132.9 72.5236 167.4 72.5236C202.527 72.5236 231.173 105.058 233.264 146.142C233.264 146.768 233.264 147.185 233.264 147.811C233.264 148.436 233.264 149.062 233.264 149.479C233.264 149.479 233.264 149.479 233.264 149.688C233.473 150.105 233.473 150.522 233.473 150.939Z" fill="black"/>
<path d="M92.9636 145.934C92.9636 145.934 112.2 159.072 142.309 132.586C172.418 106.1 175.345 96.7155 176.182 101.721C177.018 106.517 157.782 122.993 169.7 122.576C181.618 122.159 199.182 83.7853 201.064 87.5393C203.155 91.2932 221.555 156.361 234.518 149.479C247.691 142.597 253.336 167.832 244.345 115.694C239.327 86.7051 222.182 72.9407 223.855 72.1065C228.036 70.0209 235.773 70.0209 235.773 66.0585C235.773 61.8874 219.882 70.8551 219.882 68.144C219.882 65.2243 229.709 55.4223 225.945 52.7112C222.182 49.7914 219.045 65.4328 216.955 65.0157C214.864 64.5986 201.064 41.0323 145.445 54.7967C90.0364 68.144 87.9455 145.308 92.9636 145.934Z" fill="#FF4D00"/>
<path d="M134.991 151.773C137.3 151.773 139.173 147.758 139.173 142.805C139.173 137.853 137.3 133.838 134.991 133.838C132.681 133.838 130.809 137.853 130.809 142.805C130.809 147.758 132.681 151.773 134.991 151.773Z" fill="black"/>
<path d="M190.191 151.773C192.5 151.773 194.373 147.758 194.373 142.805C194.373 137.853 192.5 133.838 190.191 133.838C187.881 133.838 186.009 137.853 186.009 142.805C186.009 147.758 187.881 151.773 190.191 151.773Z" fill="black"/>
<path d="M161.964 141.971C161.964 141.971 164.473 165.955 162.382 166.372C160.291 166.789 154.645 163.869 152.973 170.126C151.3 176.174 159.873 177.842 165.727 175.757C171.373 173.671 153.809 176.174 156.736 170.126C158.618 166.163 166.982 173.88 167.4 168.04C167.609 162.409 164.264 129.25 161.964 141.971Z" fill="black"/>
<path d="M147.118 184.307C147.118 184.307 151.3 196.195 165.936 196.612C180.573 197.029 179.736 182.847 182.245 182.847C184.755 182.847 181.409 201.2 166.355 201.2C147.118 200.991 143.982 182.222 147.118 184.307Z" fill="black"/>
<path d="M123.282 171.794C128.132 171.794 132.064 167.872 132.064 163.035C132.064 158.197 128.132 154.276 123.282 154.276C118.432 154.276 114.5 158.197 114.5 163.035C114.5 167.872 118.432 171.794 123.282 171.794Z" fill="#FF4C00"/>
<path d="M202.945 171.794C207.796 171.794 211.727 167.872 211.727 163.035C211.727 158.197 207.796 154.276 202.945 154.276C198.095 154.276 194.164 158.197 194.164 163.035C194.164 167.872 198.095 171.794 202.945 171.794Z" fill="#FF4C00"/>
</g>
<defs>
<clipPath id="clip0_4_184">
<rect width="230" height="239" fill="white" transform="translate(57 50)"/>
</clipPath>
</defs>
</svg>
