<svg width="51" height="50" viewBox="0 0 51 50" fill="none" xmlns="http://www.w3.org/2000/svg">
<g clip-path="url(#clip0_4_287)">
<path fill-rule="evenodd" clip-rule="evenodd" d="M25.5 0C11.4202 0 0 11.478 0 25.6289C0 36.9497 7.35276 46.5409 17.365 50C18.6166 50.1572 19.0859 49.3711 19.0859 48.7421C19.0859 48.1132 19.0859 46.5409 19.0859 44.3396C12.046 45.9119 10.4816 40.8805 10.4816 40.8805C9.3865 37.8931 7.66564 37.1069 7.66564 37.1069C5.31902 35.5346 7.82209 35.5346 7.82209 35.5346C10.3252 35.6918 11.7331 38.2075 11.7331 38.2075C14.0798 42.1384 17.6779 41.0377 19.0859 40.4088C19.2423 38.6792 20.0245 37.5786 20.6503 36.9497C15.0184 36.3208 9.07362 34.1195 9.07362 24.2138C9.07362 21.3836 10.0123 19.1824 11.7331 17.2956C11.5767 16.8239 10.638 14.1509 12.046 10.6918C12.046 10.6918 14.2362 10.0629 19.0859 13.3648C21.1196 12.7358 23.3098 12.5786 25.5 12.5786C27.6902 12.5786 29.8804 12.8931 31.9141 13.3648C36.7638 10.0629 38.954 10.6918 38.954 10.6918C40.362 14.1509 39.4233 16.8239 39.2669 17.4528C40.8313 19.1824 41.9264 21.5409 41.9264 24.3711C41.9264 34.2767 35.9816 36.3208 30.3497 36.9497C31.2883 37.7358 32.0706 39.3082 32.0706 41.6667C32.0706 45.1258 32.0706 47.7987 32.0706 48.7421C32.0706 49.3711 32.5399 50.1572 33.7914 50C43.9601 46.5409 51.1564 36.9497 51.1564 25.6289C51 11.478 39.5798 0 25.5 0Z" fill="white"/>
</g>
<defs>
<clipPath id="clip0_4_287">
<rect width="51" height="50" fill="white"/>
</clipPath>
</defs>
</svg>
