<svg width="128" height="50" viewBox="0 0 128 50" fill="none" xmlns="http://www.w3.org/2000/svg">
<path d="M65.8173 18.3137L71.8825 17.9216C72.0209 18.9132 72.2745 19.6512 72.6896 20.1816C73.3584 21.0118 74.2809 21.4269 75.5031 21.4269C76.4025 21.4269 77.1174 21.2194 77.6017 20.7812C78.063 20.4353 78.3397 19.8818 78.3397 19.3053C78.3397 18.7518 78.086 18.2214 77.6478 17.8755C77.1866 17.4604 76.1027 17.0453 74.3962 16.6763C71.6058 16.0536 69.5994 15.2234 68.4233 14.1626C67.2471 13.171 66.5784 11.7181 66.6245 10.173C66.6245 9.11214 66.9473 8.05131 67.5469 7.17498C68.2388 6.18334 69.1843 5.39925 70.3143 4.96108C71.5366 4.43067 73.2431 4.15393 75.3878 4.15393C78.0168 4.15393 80.0232 4.63822 81.4069 5.62986C82.7905 6.59844 83.6208 8.16662 83.8744 10.3113L77.8785 10.6573C77.717 9.7348 77.3942 9.06602 76.8638 8.62785C76.3333 8.18968 75.6415 7.98213 74.7421 7.98213C74.0041 7.98213 73.4507 8.14356 73.0817 8.44336C72.7358 8.72009 72.5051 9.1352 72.5282 9.59643C72.5282 9.94235 72.7127 10.2652 72.9894 10.4728C73.2892 10.7495 74.0041 11.0032 75.1341 11.2338C77.9246 11.8334 79.9079 12.433 81.1301 13.0556C82.3524 13.6783 83.2287 14.4393 83.7591 15.3387C84.3126 16.2612 84.5893 17.322 84.5663 18.4059C84.5663 19.6973 84.1973 20.9888 83.4593 22.0727C82.6983 23.2027 81.6375 24.079 80.3922 24.6094C79.0777 25.186 77.4172 25.4858 75.434 25.4858C71.9286 25.4858 69.5072 24.817 68.1465 23.4564C66.7859 22.0957 65.9788 20.3892 65.8173 18.3137ZM1.45287 25.1398V4.52291H12.0842C14.0444 4.52291 15.5665 4.68434 16.6042 5.03027C17.6189 5.35313 18.5183 6.02191 19.1179 6.9213C19.7867 7.91294 20.1096 9.06602 20.0865 10.2652C20.1557 12.2946 19.1179 14.2318 17.3422 15.2465C16.6504 15.6385 15.8893 15.9153 15.1052 16.0536C15.6818 16.2151 16.2583 16.4918 16.7657 16.8147C17.1577 17.1375 17.4806 17.5065 17.7804 17.8985C18.1263 18.2906 18.4261 18.7288 18.6798 19.19L21.77 25.1629H14.5287L11.1156 18.821C10.6774 18.0139 10.3085 17.4834 9.96254 17.2298C9.50131 16.9069 8.94784 16.7455 8.39436 16.7455H7.84089V25.1168H1.45287V25.1398ZM7.84089 12.8712H10.5391C11.1156 12.825 11.6691 12.7328 12.2226 12.5944C12.6377 12.5252 13.0066 12.2946 13.2603 11.9487C13.883 11.1185 13.7907 9.94235 13.0297 9.22745C12.6146 8.88152 11.8075 8.69703 10.6544 8.69703H7.84089V12.8712ZM0 42.8049L6.06516 42.4128C6.20353 43.4045 6.4572 44.1425 6.87231 44.6729C7.51803 45.5031 8.46355 45.9412 9.6858 45.9412C10.5852 45.9412 11.3001 45.7337 11.7844 45.2955C12.2456 44.9265 12.5224 44.3961 12.5224 43.8196C12.5224 43.2661 12.2687 42.7357 11.8305 42.3898C11.3693 41.9747 10.2854 41.5596 8.55579 41.1906C5.76536 40.5679 3.75901 39.7377 2.58288 38.6769C1.40675 37.6853 0.737966 36.2324 0.784089 34.6873C0.784089 33.6264 1.10695 32.5656 1.70655 31.6893C2.39839 30.6976 3.34391 29.9136 4.47392 29.4754C5.69617 28.945 7.40272 28.6682 9.54743 28.6682C12.1764 28.6682 14.1828 29.1525 15.5665 30.1442C16.9502 31.1358 17.7573 32.6809 18.011 34.8256L12.015 35.1716C11.8536 34.2491 11.5307 33.5803 11.0003 33.1422C10.493 32.704 9.77805 32.4964 8.87865 32.5195C8.14069 32.5195 7.58721 32.6809 7.21823 33.0038C6.84925 33.2805 6.64169 33.6956 6.66475 34.1569C6.66475 34.5028 6.84925 34.8256 7.12598 35.0332C7.42578 35.3099 8.14069 35.5636 9.2707 35.7942C12.0611 36.3938 14.0444 36.9934 15.2667 37.6161C16.4889 38.2387 17.3653 38.9998 17.8957 39.8992C18.4491 40.8216 18.7259 41.8824 18.7259 42.9433C18.7259 44.2347 18.3338 45.5031 17.6189 46.587C16.8579 47.717 15.7971 48.5933 14.5518 49.1237C13.2373 49.7003 11.5768 50.0001 9.59356 50.0001C6.08822 50.0001 3.66677 49.3313 2.30614 47.9707C0.945519 46.587 0.184491 44.8804 0 42.8049H0Z" fill="white"/>
<path d="M30.6717 41.1904L36.2526 42.8739C35.9528 44.2807 35.3301 45.6182 34.4768 46.7944C33.6928 47.8321 32.655 48.6393 31.4789 49.1697C30.2797 49.7001 28.7576 49.9769 26.9127 49.9769C24.6757 49.9769 22.8308 49.654 21.4241 49.0083C19.9943 48.3626 18.772 47.2095 17.7342 45.5721C16.6965 43.9348 16.1891 41.8362 16.1891 39.2763C16.1891 35.8633 17.0885 33.2343 18.9104 31.4124C20.7322 29.5905 23.2921 28.6681 26.6129 28.6681C29.2188 28.6681 31.2482 29.1985 32.7472 30.2363C34.2232 31.2971 35.3301 32.9114 36.0681 35.0792L30.4411 36.3245C30.3027 35.8402 30.0952 35.3559 29.8184 34.9408C29.4725 34.4565 29.0344 34.0875 28.5039 33.8108C27.9735 33.5341 27.3739 33.4187 26.7743 33.4187C25.3215 33.4187 24.2145 33.9953 23.4535 35.1714C22.8769 36.0247 22.5772 37.3853 22.5772 39.2302C22.5772 41.5133 22.9231 43.0815 23.6149 43.9348C24.3068 44.788 25.2753 45.2031 26.5437 45.2031C27.766 45.2031 28.6884 44.8572 29.3111 44.1884C29.9337 43.4735 30.395 42.4819 30.6717 41.1904ZM43.7014 29.014H50.0664V36.2322H57.0309V29.014H63.442V49.6309H57.0309V41.2827H50.0664V49.6309H43.7014V29.014V29.014Z" fill="white"/>
<path d="M62.5657 39.3225C62.5657 35.9555 63.5112 33.3265 65.3792 31.4585C67.2471 29.5905 69.8762 28.645 73.2201 28.645C76.6562 28.645 79.2852 29.5675 81.1532 31.4124C83.0212 33.2573 83.9436 35.8402 83.9436 39.161C83.9436 41.5825 83.5285 43.5427 82.7214 45.0878C81.9373 46.6099 80.715 47.8552 79.216 48.6854C77.6709 49.5387 75.7568 49.9768 73.4737 49.9768C71.1445 49.9768 69.2304 49.6079 67.7084 48.8699C66.1402 48.0858 64.8488 46.8636 63.9955 45.3646C63.05 43.7503 62.5657 41.7439 62.5657 39.3225ZM68.9306 39.3455C68.9306 41.4211 69.3227 42.92 70.0837 43.8425C70.8447 44.7419 71.9056 45.2031 73.2431 45.2031C74.6037 45.2031 75.6646 44.765 76.4256 43.8656C77.1866 42.9662 77.5556 41.3749 77.5556 39.0688C77.5556 37.1316 77.1636 35.7018 76.3795 34.8255C75.5954 33.9261 74.5346 33.4879 73.197 33.4879C72.0209 33.4418 70.8909 33.9491 70.1068 34.8485C69.3227 35.7479 68.9306 37.2469 68.9306 39.3455V39.3455ZM90.47 39.3225C90.47 35.9555 91.4155 33.3265 93.2835 31.4585C95.1515 29.5905 97.7805 28.645 101.124 28.645C104.561 28.645 107.213 29.5675 109.058 31.4124C110.902 33.2573 111.848 35.8402 111.848 39.161C111.848 41.5825 111.433 43.5427 110.626 45.0878C109.842 46.6099 108.619 47.8552 107.12 48.6854C105.575 49.5387 103.661 49.9768 101.378 49.9768C99.0489 49.9768 97.1348 49.6079 95.6127 48.8699C94.0445 48.0858 92.7531 46.8636 91.8998 45.3646C90.9543 43.7503 90.47 41.7439 90.47 39.3225V39.3225ZM96.835 39.3455C96.835 41.4211 97.227 42.92 97.988 43.8425C98.7491 44.7419 99.8099 45.2031 101.147 45.2031C102.508 45.2031 103.569 44.765 104.33 43.8656C105.091 42.9662 105.46 41.3749 105.46 39.0688C105.46 37.1316 105.068 35.7018 104.284 34.8255C103.5 33.9261 102.439 33.4879 101.101 33.4879C99.9252 33.4418 98.7721 33.9491 98.0111 34.8485C97.227 35.7479 96.835 37.2469 96.835 39.3455V39.3455Z" fill="white"/>
<path d="M111.179 29.014H117.544V44.5574H127.484V49.631H111.156V29.014H111.179Z" fill="white"/>
<path d="M104.164 27.8243C110.572 22.9953 112.548 14.8092 108.577 9.54032C104.607 4.27139 96.1931 3.91481 89.7849 8.74388C83.3767 13.5729 81.4007 21.759 85.3713 27.0279C89.3418 32.2968 97.7554 32.6534 104.164 27.8243Z" fill="white"/>
<path d="M104.164 27.8243C110.572 22.9953 112.548 14.8092 108.577 9.54032C104.607 4.27139 96.1931 3.91481 89.7849 8.74388C83.3768 13.5729 81.4007 21.759 85.3713 27.0279C89.3418 32.2968 97.7554 32.6534 104.164 27.8243Z" stroke="white" stroke-miterlimit="10"/>
<path d="M90.4931 16.7685L92.7992 15.1542L95.6358 19.1899C96.1201 19.8356 96.489 20.5275 96.7658 21.2885C96.9272 21.865 96.8811 22.4877 96.6505 23.0412C96.3507 23.733 95.8664 24.3095 95.2207 24.7246C94.4596 25.2551 93.8139 25.5549 93.2604 25.6471C92.73 25.7394 92.1766 25.6471 91.6692 25.4165C91.1157 25.1398 90.6314 24.7477 90.2625 24.2404L92.2457 22.3954C92.4072 22.6491 92.6147 22.8797 92.8453 23.0642C93.0068 23.1795 93.1913 23.2487 93.3988 23.2487C93.5602 23.2487 93.7217 23.1795 93.837 23.0873C94.0676 22.9489 94.229 22.6722 94.206 22.3954C94.1368 22.0034 93.9753 21.6114 93.7217 21.3116L90.4931 16.7685V16.7685ZM97.4115 19.3283L99.5101 17.6678C99.7407 17.9446 100.041 18.1521 100.363 18.2674C100.825 18.4058 101.309 18.3136 101.701 18.0138C101.978 17.8293 102.208 17.5756 102.301 17.2527C102.439 16.8376 102.208 16.3764 101.793 16.238C101.724 16.215 101.655 16.1919 101.586 16.1919C101.309 16.1689 100.825 16.2842 100.11 16.584C98.9336 17.0683 98.0111 17.2527 97.3193 17.1836C96.6505 17.1144 96.0278 16.7685 95.6588 16.1919C95.3821 15.7999 95.2437 15.3386 95.2207 14.8774C95.2207 14.347 95.359 13.8166 95.6588 13.3784C96.097 12.7558 96.6274 12.2254 97.2731 11.8102C98.2417 11.1415 99.095 10.8186 99.8329 10.8186C100.571 10.8186 101.263 11.1645 101.908 11.8794L99.8329 13.5168C99.4178 12.9864 98.6338 12.8711 98.1033 13.2862L98.0342 13.3554C97.8035 13.4937 97.6421 13.7013 97.5499 13.955C97.4807 14.1394 97.5268 14.347 97.6421 14.5084C97.7344 14.6237 97.8727 14.716 98.0342 14.716C98.2187 14.739 98.5415 14.6468 99.0027 14.4392C100.156 13.955 101.032 13.6782 101.632 13.586C102.139 13.4937 102.67 13.5399 103.154 13.7474C103.592 13.9319 103.961 14.2548 104.215 14.6468C104.537 15.108 104.722 15.6615 104.745 16.238C104.768 16.8376 104.607 17.4142 104.284 17.9215C103.869 18.5442 103.338 19.0746 102.716 19.4897C101.447 20.366 100.409 20.735 99.5793 20.5967C98.6799 20.4583 97.9419 19.9971 97.4115 19.3283V19.3283Z" fill="#FF4C00"/>
</svg>
